<?xml version="1.0" encoding="UTF-8" standalone="yes"?>
<!DOCTYPE svg PUBLIC "-//W3C//DTD SVG 1.1//EN" "http://www.w3.org/Graphics/SVG/1.1/DTD/svg11.dtd">

<svg width="500" height="500" viewBox="0 0 500 500" xmlns="http://www.w3.org/2000/svg" xmlns:xlink="http://www.w3.org/1999/xlink" version="1.1" baseProfile="full">
    <g transform="scale(1,-1) translate(0,-500)">
        <path d="M 430.772600 429.180400 L 430.610000 430.792700 L 430.143900 432.294400 L 429.406300 433.653300 L 428.429400 434.837300 L 427.245500 435.814200 L 425.886500 436.551800 L 424.384900 437.017900 L 422.772600 437.180400 L 385.865700 437.180400 L 385.865700 368.080500 L 385.783100 366.444600 L 385.540700 364.855900 L 385.146400 363.322600 L 384.608400 361.852600 L 383.934600 360.453900 L 383.133200 359.134700 L 381.179400 356.766800 L 378.811500 354.813000 L 377.492300 354.011600 L 376.093600 353.337800 L 374.623600 352.799800 L 373.090300 352.405500 L 371.501600 352.163100 L 369.865700 352.080500 L 349.013400 352.080500 L 347.377500 352.163100 L 345.788800 352.405500 L 344.255500 352.799800 L 342.785500 353.337800 L 341.386800 354.011600 L 340.067600 354.813000 L 337.699700 356.766800 L 335.745900 359.134700 L 334.944500 360.453900 L 334.270700 361.852600 L 333.732700 363.322600 L 333.338400 364.855900 L 333.096000 366.444600 L 333.013400 368.080500 L 333.013400 437.180400 L 100.630800 437.180400 L 100.630800 368.080500 L 100.548200 366.444600 L 100.305800 364.855900 L 99.911500 363.322600 L 99.373500 361.852600 L 98.699700 360.453900 L 97.898300 359.134700 L 95.944500 356.766800 L 93.576600 354.813000 L 92.257400 354.011600 L 90.858700 353.337800 L 89.388700 352.799800 L 87.855400 352.405500 L 86.266700 352.163100 L 84.630800 352.080500 L 63.778500 352.080500 L 62.142600 352.163100 L 60.553900 352.405500 L 59.020600 352.799800 L 57.550600 353.337800 L 56.151900 354.011600 L 54.832700 354.813000 L 52.464800 356.766800 L 50.511000 359.134700 L 49.709600 360.453900 L 49.035800 361.852600 L 48.497800 363.322600 L 48.103500 364.855900 L 47.861100 366.444600 L 47.778500 368.080500 L 47.778500 437.180400 L 9.242400 437.180400 L 7.630100 437.017900 L 6.128400 436.551800 L 4.769500 435.814200 L 3.585500 434.837300 L 2.608700 433.653300 L 1.871100 432.294400 L 1.404900 430.792700 L 1.242400 429.180400 L 1.242400 337.145400 L 430.772600 337.145400 Z M 424.384900 1.940300 L 425.886500 2.406400 L 427.245500 3.144000 L 428.429400 4.120900 L 429.406300 5.304900 L 430.143900 6.663800 L 430.610000 8.165500 L 430.772600 9.777800 L 430.772600 327.145400 L 1.242400 327.145400 L 1.242400 9.777800 L 1.404900 8.165500 L 1.871100 6.663800 L 2.608700 5.304900 L 3.585500 4.120900 L 4.769500 3.144000 L 6.128400 2.406400 L 7.630100 1.940300 L 9.242400 1.777800 L 422.772600 1.777800 Z M 242.469700 219.479100 L 240.833800 219.561700 L 239.245200 219.804200 L 237.711800 220.198400 L 236.241800 220.736500 L 234.843200 221.410200 L 233.524000 222.211600 L 231.156000 224.165400 L 229.202300 226.533300 L 228.400900 227.852500 L 227.727100 229.251200 L 227.189100 230.721200 L 226.794800 232.254500 L 226.552300 233.843200 L 226.469700 235.479100 L 226.469700 287.607000 L 226.552300 289.242900 L 226.794800 290.831500 L 227.189100 292.364900 L 227.727100 293.834900 L 228.400900 295.233500 L 229.202300 296.552700 L 231.156000 298.920700 L 233.524000 300.874400 L 234.843200 301.675900 L 236.241800 302.349600 L 237.711800 302.887600 L 239.245200 303.281900 L 240.833800 303.524400 L 242.469700 303.607000 L 299.395900 303.607000 L 301.031800 303.524400 L 302.620500 303.281900 L 304.153800 302.887600 L 305.623800 302.349600 L 307.022500 301.675900 L 308.341700 300.874400 L 310.709600 298.920700 L 312.663400 296.552700 L 313.464800 295.233500 L 314.138500 293.834900 L 314.676600 292.364900 L 315.070800 290.831500 L 315.313300 289.242900 L 315.395900 287.607000 L 315.395900 235.479100 L 315.313300 233.843200 L 315.070800 232.254500 L 314.676600 230.721200 L 314.138500 229.251200 L 313.464800 227.852500 L 312.663400 226.533300 L 310.709600 224.165400 L 308.341700 222.211600 L 307.022500 221.410200 L 305.623800 220.736500 L 304.153800 220.198400 L 302.620500 219.804200 L 301.031800 219.561700 L 299.395900 219.479100 Z M 136.765100 219.479100 L 135.129100 219.561700 L 133.540500 219.804200 L 132.007100 220.198400 L 130.537100 220.736500 L 129.138500 221.410200 L 127.819300 222.211600 L 125.451300 224.165400 L 123.497600 226.533300 L 122.696200 227.852500 L 122.022400 229.251200 L 121.484400 230.721200 L 121.090100 232.254500 L 120.847700 233.843200 L 120.765100 235.479100 L 120.765100 287.607000 L 120.847700 289.242900 L 121.090100 290.831500 L 121.484400 292.364900 L 122.022400 293.834900 L 122.696200 295.233500 L 123.497600 296.552700 L 125.451300 298.920700 L 127.819300 300.874400 L 129.138500 301.675900 L 130.537100 302.349600 L 132.007100 302.887600 L 133.540500 303.281900 L 135.129100 303.524400 L 136.765100 303.607000 L 193.691200 303.607000 L 195.327100 303.524400 L 196.915800 303.281900 L 198.449100 302.887600 L 199.919100 302.349600 L 201.317800 301.675900 L 202.637000 300.874400 L 205.004900 298.920700 L 206.958700 296.552700 L 207.760100 295.233500 L 208.433900 293.834900 L 208.971900 292.364900 L 209.366200 290.831500 L 209.608600 289.242900 L 209.691200 287.607000 L 209.691200 235.479100 L 209.608600 233.843200 L 209.366200 232.254500 L 208.971900 230.721200 L 208.433900 229.251200 L 207.760100 227.852500 L 206.958700 226.533300 L 205.004900 224.165400 L 202.637000 222.211600 L 201.317800 221.410200 L 199.919100 220.736500 L 198.449100 220.198400 L 196.915800 219.804200 L 195.327100 219.561700 L 193.691200 219.479100 Z M 341.359500 219.479100 L 339.723600 219.561700 L 338.135000 219.804200 L 336.601600 220.198400 L 335.131600 220.736500 L 333.733000 221.410200 L 332.413800 222.211600 L 330.045800 224.165400 L 328.092100 226.533300 L 327.290700 227.852500 L 326.616900 229.251200 L 326.078900 230.721200 L 325.684600 232.254500 L 325.442100 233.843200 L 325.359500 235.479100 L 325.359500 287.607000 L 325.442100 289.242900 L 325.684600 290.831500 L 326.078900 292.364900 L 326.616900 293.834900 L 327.290700 295.233500 L 328.092100 296.552700 L 330.045800 298.920700 L 332.413800 300.874400 L 333.733000 301.675900 L 335.131600 302.349600 L 336.601600 302.887600 L 338.135000 303.281900 L 339.723600 303.524400 L 341.359500 303.607000 L 398.285700 303.607000 L 399.921600 303.524400 L 401.510300 303.281900 L 403.043600 302.887600 L 404.513600 302.349600 L 405.912300 301.675900 L 407.231500 300.874400 L 409.599400 298.920700 L 411.553200 296.552700 L 412.354600 295.233500 L 413.028300 293.834900 L 413.566400 292.364900 L 413.960600 290.831500 L 414.203100 289.242900 L 414.285700 287.607000 L 414.285700 235.479100 L 414.203100 233.843200 L 413.960600 232.254500 L 413.566400 230.721200 L 413.028300 229.251200 L 412.354600 227.852500 L 411.553200 226.533300 L 409.599400 224.165400 L 407.231500 222.211600 L 405.912300 221.410200 L 404.513600 220.736500 L 403.043600 220.198400 L 401.510300 219.804200 L 399.921600 219.561700 L 398.285700 219.479100 Z M 28.543600 116.792900 L 26.907700 116.875500 L 25.319000 117.118000 L 23.785700 117.512200 L 22.315700 118.050300 L 20.917000 118.724000 L 19.597800 119.525500 L 17.229900 121.479200 L 15.276100 123.847200 L 14.474700 125.166400 L 13.800900 126.565000 L 13.262900 128.035000 L 12.868600 129.568400 L 12.626200 131.157000 L 12.543600 132.792900 L 12.543600 184.920800 L 12.626200 186.556700 L 12.868600 188.145400 L 13.262900 189.678700 L 13.800900 191.148700 L 14.474700 192.547300 L 15.276100 193.866500 L 17.229900 196.234500 L 19.597800 198.188200 L 20.917000 198.989700 L 22.315700 199.663400 L 23.785700 200.201500 L 25.319000 200.595700 L 26.907700 200.838200 L 28.543600 200.920800 L 85.469800 200.920800 L 87.105700 200.838200 L 88.694300 200.595700 L 90.227700 200.201500 L 91.697700 199.663400 L 93.096300 198.989700 L 94.415500 198.188200 L 96.783500 196.234500 L 98.737200 193.866500 L 99.538600 192.547300 L 100.212400 191.148700 L 100.750400 189.678700 L 101.144700 188.145400 L 101.387100 186.556700 L 101.469800 184.920800 L 101.469800 132.792900 L 101.387100 131.157000 L 101.144700 129.568400 L 100.750400 128.035000 L 100.212400 126.565000 L 99.538600 125.166400 L 98.737200 123.847200 L 96.783500 121.479200 L 94.415500 119.525500 L 93.096300 118.724000 L 91.697700 118.050300 L 90.227700 117.512200 L 88.694300 117.118000 L 87.105700 116.875500 L 85.469800 116.792900 Z M 136.765100 116.792900 L 135.129100 116.875500 L 133.540500 117.118000 L 132.007100 117.512200 L 130.537100 118.050300 L 129.138500 118.724000 L 127.819300 119.525500 L 125.451300 121.479200 L 123.497600 123.847200 L 122.696200 125.166400 L 122.022400 126.565000 L 121.484400 128.035000 L 121.090100 129.568400 L 120.847700 131.157000 L 120.765100 132.792900 L 120.765100 184.920800 L 120.847700 186.556700 L 121.090100 188.145400 L 121.484400 189.678700 L 122.022400 191.148700 L 122.696200 192.547300 L 123.497600 193.866500 L 125.451300 196.234500 L 127.819300 198.188200 L 129.138500 198.989700 L 130.537100 199.663400 L 132.007100 200.201500 L 133.540500 200.595700 L 135.129100 200.838200 L 136.765100 200.920800 L 193.691200 200.920800 L 195.327100 200.838200 L 196.915800 200.595700 L 198.449100 200.201500 L 199.919100 199.663400 L 201.317800 198.989700 L 202.637000 198.188200 L 205.004900 196.234500 L 206.958700 193.866500 L 207.760100 192.547300 L 208.433900 191.148700 L 208.971900 189.678700 L 209.366200 188.145400 L 209.608600 186.556700 L 209.691200 184.920800 L 209.691200 132.792900 L 209.608600 131.157000 L 209.366200 129.568400 L 208.971900 128.035000 L 208.433900 126.565000 L 207.760100 125.166400 L 206.958700 123.847200 L 205.004900 121.479200 L 202.637000 119.525500 L 201.317800 118.724000 L 199.919100 118.050300 L 198.449100 117.512200 L 196.915800 117.118000 L 195.327100 116.875500 L 193.691200 116.792900 Z M 242.469700 116.792900 L 240.833800 116.875500 L 239.245200 117.118000 L 237.711800 117.512200 L 236.241800 118.050300 L 234.843200 118.724000 L 233.524000 119.525500 L 231.156000 121.479200 L 229.202300 123.847200 L 228.400900 125.166400 L 227.727100 126.565000 L 227.189100 128.035000 L 226.794800 129.568400 L 226.552300 131.157000 L 226.469700 132.792900 L 226.469700 184.920800 L 226.552300 186.556700 L 226.794800 188.145400 L 227.189100 189.678700 L 227.727100 191.148700 L 228.400900 192.547300 L 229.202300 193.866500 L 231.156000 196.234500 L 233.524000 198.188200 L 234.843200 198.989700 L 236.241800 199.663400 L 237.711800 200.201500 L 239.245200 200.595700 L 240.833800 200.838200 L 242.469700 200.920800 L 299.395900 200.920800 L 301.031800 200.838200 L 302.620500 200.595700 L 304.153800 200.201500 L 305.623800 199.663400 L 307.022500 198.989700 L 308.341700 198.188200 L 310.709600 196.234500 L 312.663400 193.866500 L 313.464800 192.547300 L 314.138500 191.148700 L 314.676600 189.678700 L 315.070800 188.145400 L 315.313300 186.556700 L 315.395900 184.920800 L 315.395900 132.792900 L 315.313300 131.157000 L 315.070800 129.568400 L 314.676600 128.035000 L 314.138500 126.565000 L 313.464800 125.166400 L 312.663400 123.847200 L 310.709600 121.479200 L 308.341700 119.525500 L 307.022500 118.724000 L 305.623800 118.050300 L 304.153800 117.512200 L 302.620500 117.118000 L 301.031800 116.875500 L 299.395900 116.792900 Z" transform="scale(1.000000,1.000000) translate(32.000000,23.000000)" fill="#ffffff" opacity="1.000000"></path>
        <path d="M 25.401600 2.069200 L 27.654100 2.768500 L 29.692500 3.874900 L 31.468400 5.340200 L 32.933800 7.116100 L 34.040100 9.154500 L 34.739400 11.407000 L 34.983200 13.825500 L 34.983200 91.335500 L 34.739400 93.753900 L 34.040100 96.006500 L 32.933800 98.044800 L 31.468400 99.820800 L 29.692500 101.286100 L 27.654100 102.392500 L 25.401600 103.091700 L 22.983200 103.335500 L 13.426100 103.335500 L 11.007700 103.091700 L 8.755200 102.392500 L 6.716800 101.286100 L 4.940800 99.820800 L 3.475500 98.044800 L 2.369100 96.006500 L 1.669900 93.753900 L 1.426100 91.335500 L 1.426100 13.825500 L 1.669900 11.407000 L 2.369100 9.154500 L 3.475500 7.116100 L 4.940800 5.340200 L 6.716800 3.874900 L 8.755200 2.768500 L 11.007700 2.069200 L 13.426100 1.825500 L 22.983200 1.825500 Z" transform="scale(1.000000,1.000000) translate(88.000000,385.000000)" fill="#ffffff" opacity="1.000000"></path>
        <path d="M 25.636500 2.069200 L 27.889000 2.768500 L 29.927400 3.874900 L 31.703300 5.340200 L 33.168700 7.116100 L 34.275000 9.154500 L 34.974300 11.407000 L 35.218100 13.825500 L 35.218100 91.335500 L 34.974300 93.753900 L 34.275000 96.006500 L 33.168700 98.044800 L 31.703300 99.820800 L 29.927400 101.286100 L 27.889000 102.392500 L 25.636500 103.091700 L 23.218100 103.335500 L 13.661000 103.335500 L 11.242600 103.091700 L 8.990100 102.392500 L 6.951700 101.286100 L 5.175700 99.820800 L 3.710400 98.044800 L 2.604000 96.006500 L 1.904800 93.753900 L 1.661000 91.335500 L 1.661000 13.825500 L 1.904800 11.407000 L 2.604000 9.154500 L 3.710400 7.116100 L 5.175700 5.340200 L 6.951700 3.874900 L 8.990100 2.768500 L 11.242600 2.069200 L 13.661000 1.825500 L 23.218100 1.825500 Z" transform="scale(1.000000,1.000000) translate(373.000000,385.000000)" fill="#ffffff" opacity="1.000000"></path>
    </g>
</svg>